<svg width="812" height="280" viewBox="0 0 812 280" fill="none" xmlns="http://www.w3.org/2000/svg">
<path d="M244.459 175.52C239.662 175.52 235.357 174.383 231.544 172.109C227.793 169.835 224.81 166.763 222.596 162.891C220.444 159.019 219.367 154.656 219.367 149.801C219.367 144.884 220.382 140.49 222.412 136.618C224.441 132.747 227.239 129.705 230.806 127.492C234.373 125.218 238.463 124.081 243.076 124.081C247.012 124.081 250.609 124.85 253.869 126.386C257.128 127.861 259.957 130.135 262.356 133.208C262.848 133.822 263.032 134.467 262.909 135.143C262.786 135.819 262.387 136.373 261.71 136.803C261.157 137.233 260.542 137.417 259.865 137.356C259.189 137.233 258.604 136.864 258.112 136.25C254.176 131.579 249.164 129.244 243.076 129.244C239.447 129.244 236.249 130.135 233.482 131.917C230.776 133.699 228.654 136.127 227.116 139.2C225.64 142.272 224.902 145.806 224.902 149.801C224.902 153.672 225.733 157.175 227.393 160.31C229.054 163.382 231.329 165.841 234.22 167.684C237.172 169.467 240.585 170.358 244.459 170.358C246.981 170.358 249.349 169.989 251.563 169.252C253.838 168.514 255.806 167.377 257.467 165.841C258.02 165.349 258.635 165.073 259.312 165.011C259.988 164.95 260.572 165.165 261.064 165.656C261.679 166.209 261.987 166.855 261.987 167.592C262.048 168.268 261.802 168.852 261.249 169.344C256.759 173.461 251.163 175.52 244.459 175.52Z" fill="black"/>
<path d="M303.755 175.428C298.897 175.428 294.561 174.352 290.748 172.201C286.996 169.989 284.044 166.947 281.892 163.075C279.739 159.203 278.663 154.779 278.663 149.801C278.663 144.761 279.678 140.336 281.707 136.526C283.737 132.654 286.535 129.612 290.102 127.4C293.669 125.188 297.759 124.081 302.371 124.081C306.923 124.081 310.951 125.157 314.456 127.308C317.962 129.397 320.699 132.316 322.667 136.065C324.635 139.753 325.619 144.024 325.619 148.879C325.619 149.678 325.373 150.323 324.881 150.815C324.389 151.245 323.743 151.46 322.943 151.46H284.29C284.475 155.147 285.428 158.405 287.15 161.232C288.872 164.059 291.148 166.271 293.977 167.869C296.867 169.467 300.127 170.266 303.755 170.266C306.154 170.266 308.552 169.866 310.951 169.067C313.411 168.207 315.348 167.101 316.763 165.749C317.255 165.257 317.839 165.011 318.515 165.011C319.253 164.95 319.868 165.134 320.36 165.564C321.037 166.117 321.375 166.732 321.375 167.408C321.437 168.084 321.16 168.698 320.545 169.252C318.577 171.034 315.994 172.509 312.796 173.676C309.659 174.844 306.646 175.428 303.755 175.428ZM302.371 129.244C299.173 129.244 296.283 129.981 293.7 131.456C291.117 132.931 288.995 134.99 287.335 137.632C285.736 140.214 284.752 143.225 284.383 146.666H320.268C319.838 141.504 317.993 137.325 314.733 134.129C311.474 130.872 307.353 129.244 302.371 129.244Z" fill="black"/>
<path d="M345.026 174.967C344.226 174.967 343.55 174.721 342.996 174.229C342.504 173.676 342.258 173 342.258 172.201V127.308C342.258 126.447 342.504 125.771 342.996 125.28C343.55 124.788 344.226 124.542 345.026 124.542C345.887 124.542 346.563 124.788 347.055 125.28C347.547 125.771 347.793 126.447 347.793 127.308V133.023C349.577 130.196 351.821 127.984 354.527 126.386C357.295 124.788 360.339 123.989 363.66 123.989C365.997 123.989 367.811 124.266 369.103 124.819C370.394 125.372 370.886 126.355 370.579 127.769C370.394 128.691 369.964 129.244 369.287 129.428C368.611 129.612 367.781 129.643 366.797 129.52C365.874 129.336 364.829 129.244 363.66 129.244C360.585 129.244 357.848 129.889 355.45 131.18C353.051 132.47 351.176 134.252 349.823 136.526C348.47 138.739 347.793 141.289 347.793 144.177V172.201C347.793 173 347.547 173.676 347.055 174.229C346.563 174.721 345.887 174.967 345.026 174.967Z" fill="black"/>
<path d="M405.951 175.428C401.093 175.428 396.757 174.352 392.944 172.201C389.192 169.989 386.24 166.947 384.088 163.075C381.935 159.203 380.859 154.779 380.859 149.801C380.859 144.761 381.874 140.336 383.903 136.526C385.933 132.654 388.731 129.612 392.298 127.4C395.865 125.188 399.955 124.081 404.567 124.081C409.118 124.081 413.147 125.157 416.652 127.308C420.158 129.397 422.894 132.316 424.862 136.065C426.83 139.753 427.814 144.024 427.814 148.879C427.814 149.678 427.568 150.323 427.076 150.815C426.584 151.245 425.939 151.46 425.139 151.46H386.486C386.671 155.147 387.624 158.405 389.346 161.232C391.068 164.059 393.344 166.271 396.173 167.869C399.063 169.467 402.323 170.266 405.951 170.266C408.35 170.266 410.748 169.866 413.147 169.067C415.607 168.207 417.544 167.101 418.958 165.749C419.45 165.257 420.035 165.011 420.711 165.011C421.449 164.95 422.064 165.134 422.556 165.564C423.233 166.117 423.571 166.732 423.571 167.408C423.632 168.084 423.356 168.698 422.741 169.252C420.773 171.034 418.19 172.509 414.992 173.676C411.855 174.844 408.842 175.428 405.951 175.428ZM404.567 129.244C401.369 129.244 398.479 129.981 395.896 131.456C393.313 132.931 391.191 134.99 389.531 137.632C387.932 140.214 386.948 143.225 386.579 146.666H422.464C422.033 141.504 420.188 137.325 416.929 134.129C413.669 130.872 409.549 129.244 404.567 129.244Z" fill="black"/>
<path d="M470.192 175.52C465.395 175.52 461.059 174.414 457.184 172.201C453.31 169.989 450.235 166.978 447.959 163.167C445.745 159.357 444.577 155.055 444.454 150.262V105.737C444.454 104.876 444.7 104.2 445.192 103.709C445.745 103.217 446.422 102.971 447.221 102.971C448.082 102.971 448.759 103.217 449.251 103.709C449.743 104.2 449.989 104.876 449.989 105.737V134.498C451.957 131.302 454.694 128.752 458.199 126.847C461.766 124.942 465.764 123.989 470.192 123.989C475.112 123.989 479.509 125.126 483.383 127.4C487.32 129.612 490.395 132.654 492.609 136.526C494.884 140.398 496.022 144.792 496.022 149.709C496.022 154.625 494.884 159.05 492.609 162.983C490.395 166.855 487.32 169.928 483.383 172.201C479.509 174.414 475.112 175.52 470.192 175.52ZM470.192 170.358C474.066 170.358 477.51 169.467 480.524 167.684C483.599 165.841 486.028 163.382 487.811 160.31C489.595 157.175 490.487 153.642 490.487 149.709C490.487 145.775 489.595 142.272 487.811 139.2C486.028 136.127 483.599 133.699 480.524 131.917C477.51 130.073 474.066 129.151 470.192 129.151C466.379 129.151 462.935 130.073 459.86 131.917C456.785 133.699 454.355 136.127 452.572 139.2C450.85 142.272 449.989 145.775 449.989 149.709C449.989 153.642 450.85 157.175 452.572 160.31C454.355 163.382 456.785 165.841 459.86 167.684C462.935 169.467 466.379 170.358 470.192 170.358Z" fill="black"/>
<path d="M517.238 174.967C516.438 174.967 515.762 174.721 515.208 174.229C514.716 173.676 514.47 173 514.47 172.201V127.308C514.47 126.447 514.716 125.771 515.208 125.28C515.762 124.788 516.438 124.542 517.238 124.542C518.099 124.542 518.775 124.788 519.267 125.28C519.759 125.771 520.005 126.447 520.005 127.308V133.023C521.789 130.196 524.034 127.984 526.74 126.386C529.507 124.788 532.551 123.989 535.872 123.989C538.209 123.989 540.024 124.266 541.315 124.819C542.607 125.372 543.099 126.355 542.791 127.769C542.607 128.691 542.176 129.244 541.5 129.428C540.823 129.612 539.993 129.643 539.009 129.52C538.086 129.336 537.041 129.244 535.872 129.244C532.797 129.244 530.061 129.889 527.662 131.18C525.264 132.47 523.388 134.252 522.035 136.526C520.682 138.739 520.005 141.289 520.005 144.177V172.201C520.005 173 519.759 173.676 519.267 174.229C518.775 174.721 518.099 174.967 517.238 174.967Z" fill="black"/>
<path d="M564.145 174.967C563.345 174.967 562.669 174.721 562.115 174.229C561.623 173.676 561.377 173 561.377 172.201V127.308C561.377 126.447 561.623 125.771 562.115 125.28C562.669 124.788 563.345 124.542 564.145 124.542C565.006 124.542 565.682 124.788 566.174 125.28C566.666 125.771 566.912 126.447 566.912 127.308V172.201C566.912 173 566.666 173.676 566.174 174.229C565.682 174.721 565.006 174.967 564.145 174.967Z" fill="black"/>
<path d="M612.417 175.612C607.989 175.612 604.022 174.721 600.517 172.939C597.011 171.095 594.213 168.422 592.122 164.919C590.092 161.416 589.078 157.145 589.078 152.105V127.308C589.078 126.509 589.324 125.864 589.816 125.372C590.369 124.819 591.046 124.542 591.845 124.542C592.645 124.542 593.29 124.819 593.782 125.372C594.336 125.864 594.613 126.509 594.613 127.308V152.105C594.613 156.1 595.381 159.449 596.919 162.153C598.518 164.796 600.64 166.793 603.284 168.145C605.99 169.436 609.034 170.081 612.417 170.081C615.738 170.081 618.721 169.436 621.365 168.145C624.01 166.855 626.101 165.134 627.638 162.983C629.176 160.771 629.944 158.282 629.944 155.516V127.308C629.944 126.447 630.19 125.771 630.682 125.28C631.236 124.788 631.912 124.542 632.712 124.542C633.573 124.542 634.249 124.788 634.741 125.28C635.233 125.771 635.479 126.447 635.479 127.308V172.201C635.479 173 635.233 173.676 634.741 174.229C634.249 174.721 633.573 174.967 632.712 174.967C631.912 174.967 631.236 174.721 630.682 174.229C630.19 173.676 629.944 173 629.944 172.201V167.408C627.915 169.928 625.363 171.925 622.288 173.4C619.274 174.875 615.984 175.612 612.417 175.612Z" fill="black"/>
<path d="M659.451 174.967C658.651 174.967 657.975 174.721 657.421 174.229C656.929 173.676 656.683 173 656.683 172.201V127.308C656.683 126.447 656.929 125.771 657.421 125.28C657.975 124.788 658.651 124.542 659.451 124.542C660.312 124.542 660.988 124.788 661.48 125.28C661.972 125.771 662.218 126.447 662.218 127.308V130.903C663.94 128.691 666.031 126.97 668.491 125.741C671.013 124.512 673.749 123.897 676.701 123.897C680.33 123.897 683.559 124.788 686.388 126.57C689.217 128.291 691.431 130.688 693.03 133.761C694.69 130.688 696.997 128.291 699.949 126.57C702.901 124.788 706.222 123.897 709.912 123.897C713.663 123.897 716.953 124.819 719.782 126.662C722.611 128.506 724.825 131.057 726.424 134.314C728.085 137.571 728.915 141.32 728.915 145.56V172.201C728.915 173 728.669 173.676 728.177 174.229C727.685 174.721 727.009 174.967 726.148 174.967C725.348 174.967 724.672 174.721 724.118 174.229C723.626 173.676 723.38 173 723.38 172.201V145.56C723.38 140.828 722.119 136.956 719.598 133.945C717.138 130.934 713.909 129.428 709.912 129.428C705.668 129.428 702.193 130.842 699.487 133.668C696.843 136.434 695.582 140.183 695.705 144.915C695.705 145.099 695.705 145.314 695.705 145.56V172.201C695.705 173 695.459 173.676 694.967 174.229C694.475 174.721 693.799 174.967 692.938 174.967C692.138 174.967 691.462 174.721 690.908 174.229C690.416 173.676 690.17 173 690.17 172.201V145.56C690.17 140.828 688.909 136.956 686.388 133.945C683.928 130.934 680.699 129.428 676.701 129.428C672.458 129.428 668.983 130.78 666.277 133.484C663.571 136.188 662.218 139.691 662.218 143.993V172.201C662.218 173 661.972 173.676 661.48 174.229C660.988 174.721 660.312 174.967 659.451 174.967Z" fill="black"/>
<path d="M560.972 110.345C561.833 111.144 562.848 111.543 564.016 111.543C565.246 111.543 566.261 111.144 567.061 110.345C567.922 109.484 568.352 108.439 568.352 107.21C568.352 105.797 567.891 104.752 566.968 104.076C566.107 103.339 565.154 102.97 564.108 102.97C563.001 102.97 561.987 103.339 561.064 104.076C560.203 104.752 559.773 105.797 559.773 107.21C559.773 108.439 560.173 109.484 560.972 110.345Z" fill="#EB3A6F"/>
<path d="M176.487 172.53H115.595C110.65 172.53 106.64 176.481 106.64 181.355C106.64 186.23 110.65 190.181 115.595 190.181H176.487C181.433 190.181 185.442 186.23 185.442 181.355C185.442 176.481 181.433 172.53 176.487 172.53Z" fill="#EB3A6F"/>
<path d="M176.487 89H115.595C110.65 89 106.64 92.9514 106.64 97.8257C106.64 102.7 110.65 106.651 115.595 106.651H176.487C181.433 106.651 185.442 102.7 185.442 97.8257C185.442 92.9514 181.433 89 176.487 89Z" fill="#EB3A6F"/>
<path d="M128.903 130.607H91.9422C87.0036 130.607 83 134.629 83 139.59C83 144.552 87.0036 148.574 91.9422 148.574H128.903C133.842 148.574 137.846 144.552 137.846 139.59C137.846 134.629 133.842 130.607 128.903 130.607Z" fill="#EB3A6F"/>
<path d="M158.807 148.574C163.768 148.574 167.79 144.552 167.79 139.59C167.79 134.629 163.768 130.607 158.807 130.607C153.845 130.607 149.824 134.629 149.824 139.59C149.824 144.552 153.845 148.574 158.807 148.574Z" fill="#EB3A6F"/>
</svg>
